<?xml version="1.0" standalone="no"?>
<!DOCTYPE svg PUBLIC "-//W3C//DTD SVG 1.1//EN" "http://www.w3.org/Graphics/SVG/1.1/DTD/svg11.dtd">
<svg xmlns="http://www.w3.org/2000/svg" xmlns:xlink="http://www.w3.org/1999/xlink" version="1.1" id="Layer_1" x="0px" y="0px" viewBox="0 0 954 574.1" style="enable-background:new 0 0 954 574.1;" xml:space="preserve" width="954" height="574.0999755859375">
<style type="text/css">
	.st0{fill:#FFFFFF;}
	.st1{enable-background:new    ;}
</style>
<path class="st0" d="M382.2,113.6L382.2,113.6c5.7,13.4,20,20.9,34.2,17.8c15.3-3.4,31.2-3.7,46.7-1.1c31.1,4.6,52.6,33.5,48,64.6  s-33.5,52.6-64.6,48c-0.4-0.1-0.9-0.1-1.3-0.2c-11.4-1.6-22.3-5.7-32-12c-14.8-10.4-26.7-24.3-34.9-40.3  c-10.8-19.6-40.4-74.4-58.2-107.6c-7.9-14.7-26.3-20.3-41.1-12.3l0,0c-14.8,7.9-20.3,26.3-12.4,41.1c0,0,0,0,0,0  c17.9,33.3,47.6,88.3,58.5,108.1c12.9,24.9,31.8,46.1,54.9,61.9c16.8,11,35.8,18.2,55.7,21.1c64.1,10.2,124.4-33.5,134.6-97.6  c10.2-64.1-33.5-124.4-97.6-134.6c-23-3.8-46.5-3.2-69.3,1.8c-16.3,3.7-26.6,19.9-22.9,36.2C380.9,110.1,381.5,111.9,382.2,113.6z"/>
<path class="st0" d="M272.3,176.5C222.7,75.7,164.1,68.3,144.3,65.3C80.1,55.1,19.9,98.9,9.7,163c0,0,0,0,0,0  c-13.3,77.6,54.6,142.8,130.9,137c12.1-0.2,24.2-1.6,36.1-4.2c16.3-3.9,26.4-20.3,22.4-36.6c-3.8-15.9-19.4-25.9-35.4-22.7  c-15.4,3.4-31.2,3.7-46.7,1.1c-42.7-5.9-63.3-60.1-34.5-92.9c19.8-25,58.9-25.1,84.4-7.5c32,23.3,44.1,44.4,59.3,85.3  c47,126.5,30.1,162.5,47,273.4c2.7,17.6,16.3,31.6,33.6,27.4c17.5-4.3,28.4-21.8,24.6-39.4C314.1,406,315.9,294,272.3,176.5"/>
<g class="st1">
	<path class="st0" d="M495,364.2c0,13.6-5.5,26-16.6,37.1c-6.2,6.2-11.6,9.4-16.2,9.4c-1.9,0-3.5-1-4.8-2.9L453,401   c-1.8-2.7-4.1-4-6.9-4c-8.7,0-18.4,8.8-28.9,26.3c-4.9,8.1-9.1,16.9-12.5,26.5c-4.5,12.4-6.7,23.6-6.7,33.7v4.2   c0,5.6-2.6,10.4-7.8,14.3c-4.8,3.4-10.2,5.1-16.1,5.1c-5.1,0-11.3-4.2-18.7-12.7c-4.8-5.5-7.2-11.4-7.2-17.6c0-4.9,2-14.9,6-30   c5.3-19.8,13.8-43.3,25.4-70.8c2-4.8,3.2-8.4,3.5-10.6l1.2-9.2c0.6-4.7,4.2-8.7,10.8-12c5.6-2.8,11.1-4.2,16.4-4.2   c4.4,0,8.2,1.6,11.6,4.9c6.8,6.6,10.2,11.6,10.2,15.2c0,1.4-0.7,3.8-2.1,7.1c-0.6,1.4-0.9,2.5-0.9,3.4c0,0.9,0.5,1.4,1.4,1.4   c0.8,0,2.1-1,3.9-3l9.7-11.2c10.3-11.9,19.6-17.8,27.7-17.8c6.5,0,11.7,2.4,15.8,7.1C493,351.9,495,357.6,495,364.2z"/>
	<path class="st0" d="M669.7,432.4c0,3.6-1.4,7.8-4.1,12.5c-12.1,21.4-26.5,38.5-43.2,51.3c-9.3,7.2-19.1,10.8-29.3,10.8   c-11.9,0-19.8-6.2-23.6-18.7c-0.9-2.9-1.9-4.4-3-4.4c-1.2,0-3.1,1.2-5.6,3.7c-13.4,12.9-26.4,19.4-39,19.4   c-12.4,0-22.4-5.2-30.2-15.7c-7.1-9.4-10.6-20.5-10.6-33.3c0-27.1,11.2-54.3,33.5-81.4c20-24.3,39.7-36.5,59.1-36.5   c9.4,0,17.1,3.8,23.1,11.3l5.6,7.1c2.6,3.3,5.4,5.6,8.5,7.1l13.9,6.5c8,3.8,12,8.5,12,14.3c0,4-1.4,9-4.1,15l-8.6,19.2   c-6.4,14.1-9.5,23.3-9.5,27.5c0,2.8,1.2,4.2,3.7,4.2c5.9,0,14.5-7.7,25.9-23.1c6.5-8.7,10.3-13.5,11.4-14.4   c1.1-0.9,2.1-1.3,3.1-1.3c1.5,0,3.2,1.2,5.1,3.7C667.8,422.4,669.7,427.5,669.7,432.4z M581.5,395.9c0-5.5-2.2-8.3-6.7-8.3   c-4.9,0-11.1,4.6-18.4,13.9c-14,17.8-21.3,33.1-21.9,45.8c-0.2,5.3,1.6,7.9,5.6,7.9c6.8,0,15.2-6.8,25.1-20.4   C576.1,419.9,581.5,406.9,581.5,395.9z"/>
	<path class="st0" d="M800.3,378.6c0,8.1-1.2,15.2-3.5,21.2c-5.2,13.2-13.4,19.8-24.7,19.8c-3.5,0-6.9-1.6-10.1-4.9   c-3.2-3.2-4.8-6.4-4.8-9.6l0.5-3.7l1.8-6.2c0.4-1.3,0.5-2.5,0.5-3.5c0-2.4-0.9-3.5-2.6-3.5c-1.6,0-3.9,1.7-6.7,5.1   c-16.6,19.9-24.9,37.4-24.9,52.6c0,10.2,4.4,15.4,13.1,15.4c7.6,0,17.1-5.5,28.4-16.6c2.8-2.7,5.9-5.6,9.2-8.8   c1.2-0.8,2.7-1.2,4.6-1.2c5.5,0,8.3,3.2,8.3,9.7c0,14.6-7.5,29.4-22.6,44.3c-12.6,12.5-27.6,18.7-45,18.7   c-14.8,0-26.7-5.4-35.6-16.2c-8.4-10.1-12.5-22.8-12.5-37.9c0-26.5,9.6-51.9,28.7-76.3c19.1-24.4,39.1-36.6,59.9-36.6   c11.4,0,20.6,3.6,27.6,10.7C796.8,357.9,800.3,367.2,800.3,378.6z"/>
	<path class="st0" d="M936.3,379.6c0,24.5-11.2,42.6-33.5,54.3c-10.5,5.5-22,8.3-34.6,8.3c-3.2,0-7.4-0.3-12.8-0.9v5.6   c0,4.7,1.6,8.7,4.9,12c3.3,3.3,7.3,4.9,12,4.9c8.4,0,17.2-4.2,26.5-12.7c6.9-6.4,11.6-9.5,14.1-9.5c5.5,0,8.3,3,8.3,9   c0,10-5.8,21.3-17.5,34.1c-14.2,15.5-30.5,23.3-48.7,23.3c-15.6,0-28.3-5.1-38-15.4c-9.7-10.2-14.6-23.2-14.6-38.9   c0-18,5-36.1,15-54.4c9.5-17.4,21.8-31.9,36.8-43.3c15-11.4,29.8-17.1,44.6-17.1c11.6,0,20.9,3.9,27.7,11.7   C933.1,358,936.3,367.7,936.3,379.6z M900.3,386.4c0-3-1.6-4.4-4.9-4.4c-7.8,0-16.6,8.6-26.5,25.9h1.9c0.4,0,0.8,0,1.2,0   c10.8,0,19.1-4.3,24.9-12.8C899.2,391.8,900.3,388.9,900.3,386.4z"/>
</g>
</svg>