<?xml version="1.0" standalone="no"?>
<!DOCTYPE svg PUBLIC "-//W3C//DTD SVG 1.1//EN" "http://www.w3.org/Graphics/SVG/1.1/DTD/svg11.dtd">
<svg xmlns="http://www.w3.org/2000/svg" id="Layer_1" data-name="Layer 1" viewBox="0 0 945.32 574.07" width="945.3200073242188" height="574.0700073242188"><defs><style>.cls-1{fill:#ebeeff;}.cls-2{isolation:isolate;}</style></defs><path class="cls-1" d="M382.2,113.57h0a30.24,30.24,0,0,0,34.24,17.8,122.47,122.47,0,0,1,46.69-1.13,56.89,56.89,0,0,1-16.55,112.57c-.44-.07-.88-.13-1.32-.21a79.2,79.2,0,0,1-32-12,110.54,110.54,0,0,1-34.91-40.35c-10.78-19.57-40.35-74.36-58.21-107.6a30.35,30.35,0,0,0-41.09-12.34h0a30.34,30.34,0,0,0-12.36,41.09v0c17.94,33.33,47.58,88.31,58.46,108.11a169.92,169.92,0,0,0,54.91,61.93,139.61,139.61,0,0,0,55.68,21.1A117.57,117.57,0,1,0,472.69,70.33a182.5,182.5,0,0,0-69.28,1.77,30.27,30.27,0,0,0-21.21,41.47Z"/><path class="cls-1" d="M272.31,176.5C222.66,75.74,164.13,68.29,144.27,65.34A117.58,117.58,0,0,0,9.68,163h0c-13.3,77.57,54.55,142.77,130.86,137a181.65,181.65,0,0,0,36.07-4.22,30.36,30.36,0,0,0-13-59.3,122.72,122.72,0,0,1-46.7,1.13c-42.74-5.88-63.31-60.07-34.51-92.9,19.75-25,58.87-25.1,84.39-7.49,32,23.31,44.12,44.36,59.33,85.32,47,126.51,30.07,162.48,47,273.4,2.68,17.6,16.33,31.65,33.62,27.45A33.23,33.23,0,0,0,331.3,484c-17.15-78-15.35-190-59-307.5"/><g class="cls-2"><path class="cls-1" d="M495,364.15q0,20.48-16.59,37.05-9.34,9.36-16.23,9.35a5.63,5.63,0,0,1-4.76-2.89l-4.41-6.7a8,8,0,0,0-6.88-4q-13.07,0-28.94,26.29a144.49,144.49,0,0,0-12.53,26.46q-6.7,18.54-6.7,33.7v4.24q0,8.47-7.77,14.29a27.16,27.16,0,0,1-16.05,5.12q-7.59,0-18.71-12.71-7.23-8.28-7.23-17.64,0-7.41,6-30,7.93-29.66,25.41-70.76a54.24,54.24,0,0,0,3.53-10.58l1.23-9.18q.88-7.05,10.76-12A36.67,36.67,0,0,1,411.58,340a16.36,16.36,0,0,1,11.65,4.94q10.23,9.88,10.23,15.17c0,1.41-.7,3.77-2.12,7.06a9.36,9.36,0,0,0-.88,3.35,1.24,1.24,0,0,0,1.41,1.41c.83,0,2.12-1,3.89-3l9.7-11.17Q461,340,473.16,340A19.78,19.78,0,0,1,489,347.12,25.41,25.41,0,0,1,495,364.15Z"/><path class="cls-1" d="M669.72,432.43q0,5.47-4.06,12.53-18.18,32.12-43.23,51.35-13.93,10.76-29.29,10.76-17.82,0-23.64-18.7c-1-2.94-1.94-4.42-3-4.42s-3.06,1.24-5.65,3.71q-20.11,19.41-39,19.41-18.53,0-30.17-15.69-10.59-14.1-10.59-33.31,0-40.71,33.52-81.43,30-36.48,59.11-36.49,14.12,0,23.12,11.3l5.64,7.05a23.38,23.38,0,0,0,8.47,7.06l13.94,6.53q12,5.66,12,14.29,0,6-4.06,15l-8.65,19.23q-9.53,21.18-9.52,27.53,0,4.23,3.7,4.23,8.82,0,25.94-23.11,9.71-13.06,11.38-14.38a5.17,5.17,0,0,1,3.09-1.33c1.52,0,3.23,1.24,5.11,3.71Q669.72,425,669.72,432.43ZM581.5,395.89q0-8.28-6.71-8.27-7.41,0-18.35,13.9-21,26.75-21.88,45.75c-.23,5.29,1.65,7.92,5.65,7.92q10.23,0,25-20.41Q581.49,412.43,581.5,395.89Z"/><path class="cls-1" d="M800.28,378.62a57.67,57.67,0,0,1-3.53,21.17q-7.75,19.77-24.7,19.76-5.29,0-10-4.85t-4.77-9.61l.53-3.71,1.77-6.18a13.57,13.57,0,0,0,.52-3.52c0-2.36-.88-3.53-2.64-3.53s-3.88,1.7-6.71,5.11q-24.87,29.82-24.87,52.58,0,15.36,13,15.35,11.48,0,28.41-16.58l9.17-8.82a7.81,7.81,0,0,1,4.59-1.24q8.3,0,8.29,9.7,0,21.88-22.58,44.29-18.88,18.7-45,18.71-22.23,0-35.64-16.24-12.54-15.17-12.53-37.93,0-39.7,28.67-76.31t59.9-36.62q17.12,0,27.62,10.68T800.28,378.62Z"/><path class="cls-1" d="M936.32,379.57q0,36.76-33.49,54.26a73,73,0,0,1-34.56,8.31,121.28,121.28,0,0,1-12.76-.88v5.64a16.87,16.87,0,0,0,16.94,16.94q12.52,0,26.46-12.7,10.41-9.54,14.12-9.53,8.29,0,8.29,9,0,15-17.47,34.05Q882.51,508,855.16,508q-23.48,0-38-15.37t-14.55-38.85q0-27,15-54.4a135.16,135.16,0,0,1,36.79-43.28q22.5-17.13,44.55-17.13,17.48,0,27.71,11.66Q936.31,361.73,936.32,379.57Zm-36,6.84q0-4.44-5-4.44-11.64,0-26.46,25.94h3.17q16.24,0,24.88-12.79Q900.33,390.14,900.33,386.41Z"/></g></svg>